<?xml version="1.0" encoding="iso-8859-1"?>
<!-- Generator: Adobe Illustrator 19.0.0, SVG Export Plug-In . SVG Version: 6.00 Build 0)  -->
<svg version="1.1" id="Capa_1" xmlns="http://www.w3.org/2000/svg" xmlns:xlink="http://www.w3.org/1999/xlink" x="0px" y="0px"
	 viewBox="0 0 300.001 300.001" style="enable-background:new 0 0 300.001 300.001;" xml:space="preserve">
<g id="XMLID_1261_">
	<rect id="XMLID_1262_" x="45.001" y="0.001" style="fill:#5A8BB0;" width="30" height="30"/>
	<path id="XMLID_1263_" style="fill:#CDCDD0;" d="M300,30v60H150.001v210h150V30H300z M195.001,270h-30v-30h30V270z
		 M195.001,210.001h-30v-30h30V210.001z M195.001,150.001h-30v-30h30V150.001z M255.001,270h-30v-30h30V270z M255.001,210.001h-30
		v-30h30V210.001z M255.001,150.001h-30v-30h30V150.001z"/>
	<path id="XMLID_1271_" style="fill:#DEDDE0;" d="M150,90.001H0.001v210h150v-210H150z M75.001,270h-30v-30h30V270z M75.001,210.001
		h-30v-30h30V210.001z M75.001,150.001h-30v-30h30V150.001z M135.001,270h-30v-30h30V270z M135.001,210.001h-30v-30h30V210.001z
		 M135.001,150.001h-30v-30h30V150.001z"/>
	<rect id="XMLID_1279_" x="45.001" y="180.001" style="fill:#FFFFFF;" width="30" height="30"/>
	<rect id="XMLID_1280_" x="105.001" y="180.001" style="fill:#FF5023;" width="30" height="30"/>
	<rect id="XMLID_1281_" x="165.001" y="180.001" style="fill:#FF9811;" width="30" height="30"/>
	<rect id="XMLID_1282_" x="225.001" y="180.001" style="fill:#FF9811;" width="30" height="30"/>
	<rect id="XMLID_1283_" x="45.001" y="120.001" style="fill:#FFFFFF;" width="30" height="30"/>
	<rect id="XMLID_1284_" x="105.001" y="120.001" style="fill:#FFFFFF;" width="30" height="30"/>
	<rect id="XMLID_1285_" x="165.001" y="120.001" style="fill:#FFFFFF;" width="30" height="30"/>
	<rect id="XMLID_1286_" x="225.001" y="120.001" style="fill:#FFFFFF;" width="30" height="30"/>
	<rect id="XMLID_1287_" x="45.001" y="240.001" style="fill:#FF9811;" width="30" height="30"/>
	<rect id="XMLID_1288_" x="105.001" y="240.001" style="fill:#FF5023;" width="30" height="30"/>
	<rect id="XMLID_1289_" x="165.001" y="240.001" style="fill:#FFFFFF;" width="30" height="30"/>
	<rect id="XMLID_1290_" x="225.001" y="240.001" style="fill:#FFFFFF;" width="30" height="30"/>
	<polygon id="XMLID_1291_" style="fill:#78B9EB;" points="150,30 135.001,30 75.001,30 45.001,30 0.001,30 0,30 0,90.001 
		0.001,90.001 150,90.001 	"/>
	<polygon id="XMLID_1292_" style="fill:#5A8BB0;" points="150,90.001 150.001,90.001 300,90.001 300,30 255.001,30 255.001,0.001 
		225.001,0.001 225.001,30 165.001,30 165.001,0.001 135.001,0.001 135.001,30 150,30 	"/>
</g>
<g>
</g>
<g>
</g>
<g>
</g>
<g>
</g>
<g>
</g>
<g>
</g>
<g>
</g>
<g>
</g>
<g>
</g>
<g>
</g>
<g>
</g>
<g>
</g>
<g>
</g>
<g>
</g>
<g>
</g>
</svg>
