<?xml version="1.0" encoding="iso-8859-1"?>
<!-- Generator: Adobe Illustrator 19.0.0, SVG Export Plug-In . SVG Version: 6.00 Build 0)  -->
<svg version="1.1" id="Capa_1" xmlns="http://www.w3.org/2000/svg" xmlns:xlink="http://www.w3.org/1999/xlink" x="0px" y="0px"
	 viewBox="0 0 370 370" style="enable-background:new 0 0 370 370;" xml:space="preserve">
<g id="XMLID_1987_">
	<polygon id="XMLID_1988_" style="fill:#5A8BB0;" points="281.801,30 320,30 320,0 258.199,0 242.371,70 272.945,70 	"/>
	<path id="XMLID_1989_" style="fill:#FFDA44;" d="M55,70c0-22.092,17.908-40,40-40V0C56.34,0,25,31.34,25,70s31.34,70,70,70v-30
		C72.908,110,55,92.092,55,70z"/>
	<path id="XMLID_1990_" style="fill:#FF9811;" d="M95,110v30c14.713,0,28.358-4.549,39.627-12.303l-16.982-24.728
		C111.205,107.4,103.407,110,95,110z"/>
	<path id="XMLID_1991_" style="fill:#FF9811;" d="M135,70h30c0-38.66-31.34-70-70-70v30C117.092,30,135,47.908,135,70z"/>
	<path id="XMLID_1992_" style="fill:#FFFFFF;" d="M95,30c-22.092,0-40,17.908-40,40s17.908,40,40,40c8.407,0,16.205-2.6,22.645-7.03
		L95,70h40C135,47.908,117.092,30,95,30z"/>
	<polygon id="XMLID_1993_" style="fill:#FF5023;" points="220,100 115.604,100 205.061,230.25 220,230.25 	"/>
	<polygon id="XMLID_1994_" style="fill:#BF3C1A;" points="220,230.25 234.939,230.25 324.396,100 220,100 	"/>
	<path id="XMLID_1995_" style="fill:#AED5F3;" d="M235,230.25h-0.061L345,70h-72.055h-30.574H165h-30H95l22.645,32.97l16.982,24.728
		l70.434,102.553H205V340h-55v30h140v-30h-55V230.25z M115.604,100H220h104.396l-89.457,130.25H220h-14.939L115.604,100z"/>
</g>
<g>
</g>
<g>
</g>
<g>
</g>
<g>
</g>
<g>
</g>
<g>
</g>
<g>
</g>
<g>
</g>
<g>
</g>
<g>
</g>
<g>
</g>
<g>
</g>
<g>
</g>
<g>
</g>
<g>
</g>
</svg>
