<?xml version="1.0" encoding="utf-8"?>
<!-- Generator: Adobe Illustrator 18.1.1, SVG Export Plug-In . SVG Version: 6.00 Build 0)  -->
<svg version="1.1" id="Layer_1" xmlns="http://www.w3.org/2000/svg" xmlns:xlink="http://www.w3.org/1999/xlink" x="0px" y="0px"
	 viewBox="229.9 34.6 500 484.6" enable-background="new 229.9 34.6 500 484.6" xml:space="preserve">
<g>
	<path fill="#373D60" d="M349.4,154.1c31.2,0,56.2-25,56.2-56.2s-25-56.2-56.2-56.2s-56.2,25-56.2,56.2S318.2,154.1,349.4,154.1
		L349.4,154.1z"/>
	<path fill="#373D60" d="M458.2,338.9c-1.5-12.8-12.3-23-25.5-23l0,0h-44.4v-61.3c14.8,13.3,31.7,21.5,54.1,21.5
		c13.3,0,29.1-3.1,47-10.2c11.2-4.1,16.9-16.9,12.8-28.1C498,226.6,485.3,221,474,225c-43.9,16.9-52.6,7.7-90.9-45.5
		c0,0,0,0-0.5-0.5c-7.7-11.7-20.4-19.4-32.7-22.5c0,0-6.1-1.5-12.3-1.5c-6.1,0-12.8,1.5-12.8,1.5l0,0c-18.9,4.6-38.8,19.9-38.8,42.9
		v123.6c0,27.1,26.6,43.4,51.6,43.4c1.5,0,2.6,0,4.1,0h68.9l14.8,127.2c1.5,13.3,12.8,23,25.5,23c1,0,2,0,3.1,0
		c14.3-1.5,24-14.3,22.5-28.6L458.2,338.9z"/>
	<path fill="#81503B" d="M403,396.6c0-11.7-9.7-22-22-22H273.8V202.1c0-11.7-9.7-22-22-22c-12.3,0-22,9.7-22,22v194.1
		c0,8.2,4.1,14.8,10.7,18.9c-4.1,7.7-6.6,15.8-6.6,25v60.8c0,10.2,8.2,18.4,18.4,18.4c10.2,0,18.4-8.2,18.4-18.4v-60.8
		c0-8.2,6.6-14.8,14.8-14.8h60.8c8.2,0,14.8,6.6,14.8,14.8v60.8c0,10.2,8.2,18.4,18.4,18.4s18.4-8.2,18.4-18.4v-60.8
		c0-8.7-2-17.4-6.1-24.5C398.4,412,403,404.8,403,396.6L403,396.6z"/>
	<path fill="#81503B" d="M709,280.7H467.4c-11.7,0-20.9,9.2-20.9,20.9c0,11.7,9.2,20.9,20.9,20.9H496v184.9h184.4V322.6H709
		c11.7,0,20.9-9.2,20.9-20.9C729.9,289.9,720.7,280.7,709,280.7L709,280.7z"/>
	<path fill="#83B465" d="M690.1,96.9l-86.8-14.3l-17.4,40.9l86.8,14.3L690.1,96.9z M673.2,97.9l10.7,1.5l-4.1,8.7
		C675.2,106.6,672.2,102.5,673.2,97.9L673.2,97.9z M602.2,122.4l-10.7-1.5l4.1-8.7C600.2,113.7,603.2,117.8,602.2,122.4L602.2,122.4
		z M601.7,95.8l4.1-8.7l10.7,1.5C614,92.8,607.8,95.8,601.7,95.8L601.7,95.8z M655.8,113.2c-3.6,8.2-14.3,13.3-24,11.7
		c-9.7-1.5-15.3-9.7-11.7-17.4c3.6-8.2,14.3-13.3,24-11.7C653.8,96.9,658.9,105,655.8,113.2L655.8,113.2z M658.9,131.6
		c3.1-4.6,8.7-7.2,14.8-7.2l-4.1,8.7L658.9,131.6z"/>
	<path fill="#83B465" d="M643.1,101.5l1-2l-3.1-0.5l-1,2c-2,0-3.6,0-5.1,0.5s-2.6,1.5-3.1,3.1c-0.5,1-0.5,2,0,3.1s1.5,2,3.1,2.6
		l1,0.5l-2,4.1c-1,0-1.5-0.5-2.6-1c-1-0.5-2-1-2.6-1.5l-0.5-0.5l-1.5,3.6l0,0c1.5,1,3.1,1.5,5.6,2l-1,2.6l3.1,0.5l1-3.1
		c2,0,4.1,0,5.1-0.5c1.5-0.5,2.6-1.5,3.1-3.1c0.5-1,0.5-2,0-3.1c-0.5-1-1.5-1.5-3.6-2.6l-1-0.5l1.5-4.1c1.5,0.5,2.6,1,4.1,1.5h0.5
		l2.6-2.6h-0.5C646.6,102.5,645.1,102,643.1,101.5L643.1,101.5z M636.4,105.5c0-0.5,0.5-0.5,1-1c0.5,0,1-0.5,1.5-0.5l-1.5,3.1
		c-0.5-0.5-1-0.5-1-1C635.9,106,635.9,105.5,636.4,105.5L636.4,105.5z M636.9,115.8l1.5-3.1c0.5,0.5,1,0.5,1,1s0.5,0.5,0,1
		C639.5,114.7,639,115.2,636.9,115.8L636.9,115.8z"/>
	<path fill="#83B465" d="M607.8,167.3l-73-61.8l-19.9,44.9l73,61.8L607.8,167.3z M593.5,160.2l9.2,7.7l-4.6,9.7
		C594,173,592,165.8,593.5,160.2L593.5,160.2z M529.7,157.1l-9.2-7.7l4.6-9.7C529.2,144.4,530.7,151.5,529.7,157.1L529.7,157.1z
		 M532.8,121.9l4.6-9.7l9.2,7.7C543,124.4,537.9,124.9,532.8,121.9L532.8,121.9z M554.2,175c-8.2-7.2-11.7-19.9-7.7-29.1
		c4.1-8.7,13.8-10.7,22-3.6c8.2,7.2,11.7,19.9,7.7,29.1C572.6,180.6,562.9,182.1,554.2,175L554.2,175z M577.2,197.5
		c3.1-4.6,8.7-5.1,13.3-2l-4.6,9.7L577.2,197.5z"/>
	<path fill="#83B465" d="M567,150l1-2.6l-2.6-2l-1,2.6c-1.5-1-3.1-1.5-4.6-1.5c-1.5,0-2.6,1-3.1,2c-0.5,1.5-0.5,2.6-0.5,4.1
		c0.5,1.5,1,3.1,2,5.1l0.5,1l-2,4.6c-0.5-0.5-1.5-1.5-2-2.6c-1-1-1.5-2-2-3.1l-0.5-0.5l-1.5,3.6l0,0c1,2,2.6,3.6,4.6,5.6l-1.5,3.1
		l2.6,2l1.5-3.1c2,1,3.6,1.5,4.6,1.5c1.5,0,2.6-1,3.1-2.6c0.5-1,0.5-2.6,0.5-4.1c-0.5-1.5-1-3.1-2.6-5.1l-0.5-1l2-4.6
		c1,1,2,2.6,3.1,4.1v0.5l2.6-2v-0.5C570,153,569,151.5,567,150L567,150z M562.9,165.3c0,0.5-0.5,1.5-2.6,0.5l1.5-3.6
		c0.5,0.5,0.5,1.5,1,2C562.9,164.3,562.9,164.8,562.9,165.3L562.9,165.3z M561.9,154.6c-0.5-0.5-0.5-1.5-1-1.5c0-0.5,0-1,0-1.5
		c0-0.5,0.5-0.5,1-0.5s1,0,1.5,0.5L561.9,154.6z"/>
</g>
<line fill="none" x1="673.2" y1="201" x2="672.7" y2="203.1"/>
<g>
	<path fill="none" d="M640,141.8l-4.1,9.2c5.1,1.5,10.7-1,13.3-5.1L640,141.8z"/>
	<path fill="none" d="M628.3,167.8l-4.1,9.2l9.2,4.1C634.9,176,632.9,170.9,628.3,167.8z"/>
	<path fill="none" d="M672.7,159.2c-8.7-3.6-18.4,0-22,8.7c-3.6,8.7,0,18.4,8.7,22c6.6,3.1,14.8,1,19.4-4.6l4.1-12.8
		C681.9,166.8,678.3,161.2,672.7,159.2z M673.2,171.4L673.2,171.4c-1.5-1.5-2.6-2-3.6-3.1l-2,4.1l0.5,0.5c1.5,1.5,2.6,2.6,2.6,3.6
		c0.5,1,0.5,2,0,3.6c-0.5,1.5-1.5,2.6-3.1,2.6c-1.5,0.5-3.1,0.5-4.6,0l-1.5,3.1l-2-0.5l1-3.1c-2-1-3.6-2-4.6-3.6l0,0l1.5-3.6
		l0.5,0.5c0.5,0.5,1.5,1.5,2,2c1,0.5,1.5,1,2,1.5l2-4.6l-0.5-0.5c-1.5-1-2-2.6-2.6-3.6s0-2.6,0.5-3.6c0.5-1.5,1.5-2,3.1-2.6
		c1.5-0.5,2.6-0.5,4.6,0l1-2l2.6,1l-1,2c1.5,1,3.1,2,4.6,3.1v0.5L673.2,171.4z"/>
	<rect x="680.4" y="171.9" fill="none" width="0" height="13.8"/>
	<path fill="none" d="M666.1,177l-1.5,3.1c2,0.5,2-0.5,2.6-1c0-0.5,0-1,0-1C667.1,177.5,666.6,177.5,666.1,177z"/>
	<path fill="none" d="M667.1,167.8c-0.5,0-1,0-1.5,0c-0.5,0-0.5,0.5-1,1c0,0.5,0,1,0,1c0,0.5,0.5,0.5,1,1L667.1,167.8z"/>
	<polygon fill="none" points="682.4,172.6 678.3,185.7 678.3,185.7 	"/>
	<path d="M682.4,172.4l4.6-14.3L682.4,172.4z"/>
	<path fill="#818181" d="M707.9,120.3c-4.6-1.5-9.7,1-11.2,6.1l-9.7,31.7l-4.6,14.3l0,0l-4.1,12.8l0,0l-5.6,17.4l-16.3,53.1H528.2
		c-5.1,0-9.2,4.1-9.2,9.2c0,5.1,4.1,9.2,9.2,9.2H663c4.1,0,7.7-2.6,8.7-6.1l42.4-135.9C715.1,127,712.5,121.9,707.9,120.3z"/>
	<path fill="#83B465" d="M678.3,185.2l-5.1,15.8L678.3,185.2c-4.6,5.1-12.3,7.2-19.4,4.6c-8.7-3.6-12.3-13.8-8.7-22
		c3.6-8.7,13.8-12.3,22-8.7c5.6,2.6,9.2,7.7,9.7,13.3l4.6-14.3l-49-21.5l-18.9,42.9l53.6,23.5L678.3,185.2L678.3,185.2z
		 M633.4,181.1l-9.2-4.1l4.1-9.2C632.9,170.9,634.9,176,633.4,181.1z M635.9,151l4.1-9.2l9.2,4.1C646.1,150.5,641,152.5,635.9,151z"
		/>
	<path fill="#83B465" d="M671.2,165.3l1-2l-2.6-1l-1,2c-1.5-0.5-3.1-0.5-4.6,0s-2.6,1.5-3.1,2.6c-0.5,1-0.5,2.6-0.5,3.6
		c0.5,1,1,2.6,2.6,3.6l0.5,0.5l-2,4.6c-0.5-0.5-1.5-1-2-1.5c-1-0.5-1.5-1.5-2-2l-0.5-0.5l-1.5,3.6l0,0c1,1,2.6,2.6,4.6,3.6l-0.5,3.1
		l2.6,1l1.5-3.1c2,0.5,3.6,0.5,4.6,0c1.5-0.5,2.6-1.5,3.1-2.6c0.5-1,0.5-2,0-3.6c-0.5-1-1-2.6-2.6-3.6l-0.5-0.5l2-4.1
		c1,0.5,2,1.5,3.1,2.6l0.5,0.5l2.6-2.6v-0.5C674.2,167.3,672.7,166.3,671.2,165.3z M665,168.4c0-0.5,0.5-0.5,1-1c0.5,0,1,0,1.5,0
		l-1.5,3.1c-0.5-0.5-0.5-1-1-1C664.5,169.4,664.5,168.9,665,168.4z M667.1,179.6c0,0.5-0.5,1-2.6,1l1.5-3.6c0.5,0.5,1,1,1,1.5
		C667.1,178.6,667.1,179.1,667.1,179.6z"/>
</g>
</svg>
